RBDS022runT25_grf
version=1
nRows=24
nColumns=19
inDegrees=no
endheader
time	ground_force_r_vx	ground_force_r_vy	ground_force_r_vz	ground_force_r_px	ground_force_r_py	ground_force_r_pz	ground_force_r_mx	ground_force_r_my	ground_force_r_mz	ground_force_l_vx	ground_force_l_vy	ground_force_l_vz	ground_force_l_px	ground_force_l_py	ground_force_l_pz	ground_force_l_mx	ground_force_l_my	ground_force_l_mz
      0.00000000	     72.85049430	   1233.23966064	    -19.16796534	      2.07770703	      0.00000000	      1.05352866	     -0.00000000	      9.80002838	      0.00000000	      0.00000000	      0.00000000	      0.00000000	      0.00000000	      0.00000000	      0.00000000	      0.00000000	      0.00000000	      0.00000000
      0.00100000	     75.44918370	   1217.61421477	    -18.54141992	      2.07605011	      0.00000000	      1.05345623	      0.00000000	      9.71534035	     -0.00000000	      0.00000000	      0.00000000	      0.00000000	      0.00000000	      0.00000000	      0.00000000	      0.00000000	      0.00000000	      0.00000000
      0.00200000	     78.04787310	   1201.98876890	    -17.91487450	      2.07439319	      0.00000000	      1.05338381	      0.00000000	      9.63065233	     -0.00000000	      0.00000000	      0.00000000	      0.00000000	      0.00000000	      0.00000000	      0.00000000	      0.00000000	      0.00000000	      0.00000000
      0.00300000	     80.64656250	   1186.36332303	    -17.28832907	      2.07273626	      0.00000000	      1.05331138	      0.00000000	      9.54596430	     -0.00000000	      0.00000000	      0.00000000	      0.00000000	      0.00000000	      0.00000000	      0.00000000	      0.00000000	      0.00000000	      0.00000000
      0.00400000	     83.20734612	   1170.73734829	    -16.67118216	      2.07105679	      0.00000000	      1.05323635	      0.00000000	      9.45939700	     -0.00000000	      0.00000000	      0.00000000	      0.00000000	      0.00000000	      0.00000000	      0.00000000	      0.00000000	      0.00000000	      0.00000000
      0.00500000	     85.74917686	   1155.11110913	    -16.05873450	      2.06936605	      0.00000000	      1.05316001	      0.00000000	      9.37189006	     -0.00000000	      0.00000000	      0.00000000	      0.00000000	      0.00000000	      0.00000000	      0.00000000	      0.00000000	      0.00000000	      0.00000000
      0.00600000	     88.29100759	   1139.48486996	    -15.44628684	      2.06767530	      0.00000000	      1.05308367	      0.00000000	      9.28438311	     -0.00000000	      0.00000000	      0.00000000	      0.00000000	      0.00000000	      0.00000000	      0.00000000	      0.00000000	      0.00000000	      0.00000000
      0.00700000	     90.79689168	   1123.86974285	    -14.84207215	      2.06597101	      0.00000000	      1.05300636	      0.00000000	      9.19560317	     -0.00000000	      0.00000000	      0.00000000	      0.00000000	      0.00000000	      0.00000000	      0.00000000	      0.00000000	      0.00000000	      0.00000000
      0.00800000	     93.23088247	   1108.27683984	    -14.25432340	      2.06423963	      0.00000000	      1.05292712	      0.00000000	      9.10427724	     -0.00000000	      0.00000000	      0.00000000	      0.00000000	      0.00000000	      0.00000000	      0.00000000	      0.00000000	      0.00000000	      0.00000000
      0.00900000	     95.66487327	   1092.68393683	    -13.66657465	      2.06250825	      0.00000000	      1.05284788	      0.00000000	      9.01295131	     -0.00000000	      0.00000000	      0.00000000	      0.00000000	      0.00000000	      0.00000000	      0.00000000	      0.00000000	      0.00000000	      0.00000000
      0.01000000	     98.09886406	   1077.09103382	    -13.07882590	      2.06077686	      0.00000000	      1.05276863	      0.00000000	      8.92162537	     -0.00000000	      0.00000000	      0.00000000	      0.00000000	      0.00000000	      0.00000000	      0.00000000	      0.00000000	      0.00000000	      0.00000000
      0.01100000	    100.37567239	   1061.56146193	    -12.52554590	      2.05899947	      0.00000000	      1.05268769	      0.00000000	      8.82563693	     -0.00000000	      0.00000000	      0.00000000	      0.00000000	      0.00000000	      0.00000000	      0.00000000	      0.00000000	      0.00000000	      0.00000000
      0.01200000	    102.65248073	   1046.03189004	    -11.97226589	      2.05722208	      0.00000000	      1.05260675	      0.00000000	      8.72964849	     -0.00000000	      0.00000000	      0.00000000	      0.00000000	      0.00000000	      0.00000000	      0.00000000	      0.00000000	      0.00000000	      0.00000000
      0.01300000	    104.92928906	   1030.50231815	    -11.41898589	      2.05544469	      0.00000000	      1.05252580	      0.00000000	      8.63366005	     -0.00000000	      0.00000000	      0.00000000	      0.00000000	      0.00000000	      0.00000000	      0.00000000	      0.00000000	      0.00000000	      0.00000000
      0.01400000	    107.07053001	   1015.03312229	    -10.89441395	      2.05363451	      0.00000000	      1.05244467	      0.00000000	      8.53415611	     -0.00000000	      0.00000000	      0.00000000	      0.00000000	      0.00000000	      0.00000000	      0.00000000	      0.00000000	      0.00000000	      0.00000000
      0.01500000	    109.14398726	    999.59411444	    -10.38419605	      2.05180794	      0.00000000	      1.05236344	      0.00000000	      8.43289441	     -0.00000000	      0.00000000	      0.00000000	      0.00000000	      0.00000000	      0.00000000	      0.00000000	      0.00000000	      0.00000000	      0.00000000
      0.01600000	    111.21744451	    984.15510660	     -9.87397815	      2.04998136	      0.00000000	      1.05228221	      0.00000000	      8.33163272	     -0.00000000	      0.00000000	      0.00000000	      0.00000000	      0.00000000	      0.00000000	      0.00000000	      0.00000000	      0.00000000	      0.00000000
      0.01700000	    113.20925048	    968.75489415	     -9.38048938	      2.04813830	      0.00000000	      1.05220143	      0.00000000	      8.22850535	     -0.00000000	      0.00000000	      0.00000000	      0.00000000	      0.00000000	      0.00000000	      0.00000000	      0.00000000	      0.00000000	      0.00000000
      0.01800000	    115.03775388	    953.43227249	     -8.92045887	      2.04626223	      0.00000000	      1.05212154	      0.00000000	      8.12164665	     -0.00000000	      0.00000000	      0.00000000	      0.00000000	      0.00000000	      0.00000000	      0.00000000	      0.00000000	      0.00000000	      0.00000000
      0.01900000	    116.86625729	    938.10965083	     -8.46042837	      2.04438617	      0.00000000	      1.05204164	      0.00000000	      8.01478795	     -0.00000000	      0.00000000	      0.00000000	      0.00000000	      0.00000000	      0.00000000	      0.00000000	      0.00000000	      0.00000000	      0.00000000
      0.02000000	    118.69476069	    922.78702917	     -8.00039786	      2.04251010	      0.00000000	      1.05196175	      0.00000000	      7.90792924	     -0.00000000	      0.00000000	      0.00000000	      0.00000000	      0.00000000	      0.00000000	      0.00000000	      0.00000000	      0.00000000	      0.00000000
      0.02100000	    120.24247138	    907.60643645	     -7.59598687	      2.04058759	      0.00000000	      1.05188503	      0.00000000	      7.79546636	     -0.00000000	      0.00000000	      0.00000000	      0.00000000	      0.00000000	      0.00000000	      0.00000000	      0.00000000	      0.00000000	      0.00000000
      0.02200000	    121.79018207	    892.42584374	     -7.19157587	      2.03866508	      0.00000000	      1.05180831	      0.00000000	      7.68300347	     -0.00000000	      0.00000000	      0.00000000	      0.00000000	      0.00000000	      0.00000000	      0.00000000	      0.00000000	      0.00000000	      0.00000000
      0.02300000	    123.33789275	    877.24525103	     -6.78716488	      2.03674257	      0.00000000	      1.05173159	      0.00000000	      7.57054058	     -0.00000000	      0.00000000	      0.00000000	      0.00000000	      0.00000000	      0.00000000	      0.00000000	      0.00000000	      0.00000000	      0.00000000
